<mxfile host="app.diagrams.net" modified="2022-03-10T14:39:33.755Z" agent="5.0 (Windows NT 10.0; Win64; x64) AppleWebKit/537.36 (KHTML, like Gecko) Chrome/99.0.4844.51 Safari/537.36 Edg/99.0.1150.36" etag="MIe_tObdHu30D598Mhso" version="17.1.0" type="github">
  <diagram id="DEa69ErbjfxZWZCwauyj" name="Page-1">
    <mxGraphModel dx="1146" dy="632" grid="1" gridSize="10" guides="1" tooltips="1" connect="1" arrows="1" fold="1" page="1" pageScale="1" pageWidth="827" pageHeight="1169" math="0" shadow="0">
      <root>
        <mxCell id="0" />
        <mxCell id="1" parent="0" />
        <mxCell id="OS9RA0seU2cUAP2cbO_q-2" value="" style="shape=flexArrow;endArrow=classic;html=1;rounded=1;endWidth=21;endSize=3.52;fillColor=#d5e8d4;strokeColor=#82b366;curved=1;sketch=1;" edge="1" parent="1">
          <mxGeometry width="50" height="50" relative="1" as="geometry">
            <mxPoint x="110" y="160" as="sourcePoint" />
            <mxPoint x="900" y="160" as="targetPoint" />
          </mxGeometry>
        </mxCell>
        <mxCell id="OS9RA0seU2cUAP2cbO_q-4" value="时间" style="text;html=1;align=center;verticalAlign=middle;resizable=0;points=[];autosize=1;strokeColor=none;fillColor=none;" vertex="1" parent="1">
          <mxGeometry x="440" y="130" width="40" height="20" as="geometry" />
        </mxCell>
      </root>
    </mxGraphModel>
  </diagram>
</mxfile>
